<svg viewBox="-16 -32 880 192" width="880" height="192" xmlns="http://www.w3.org/2000/svg">
    <desc>Generated with https://github.com/Platane/snk</desc>
    <style>
        :root{--cb:#1b1f230a;--cs:purple;--ce:#161b22;--c0:#161b22;--c1:#01311f;--c2:#034525;--c3:#0f6d31;--c4:#00c647}.c{shape-rendering:geometricPrecision;fill:var(--ce);stroke-width:1px;stroke:var(--cb);animation:none
        35100ms linear infinite;width:12px;height:12px}@keyframes
        c0{63.81%{fill:var(--c2)}63.83%,100%{fill:var(--ce)}}.c.c0{fill:var(--c2);animation-name:c0}@keyframes
        c1{63.24%{fill:var(--c2)}63.26%,100%{fill:var(--ce)}}.c.c1{fill:var(--c2);animation-name:c1}@keyframes
        c2{25.63%{fill:var(--c1)}25.65%,100%{fill:var(--ce)}}.c.c2{fill:var(--c1);animation-name:c2}@keyframes
        c3{65.8%{fill:var(--c3)}65.82%,100%{fill:var(--ce)}}.c.c3{fill:var(--c3);animation-name:c3}@keyframes
        c4{98.57%{fill:var(--c4)}98.59%,100%{fill:var(--ce)}}.c.c4{fill:var(--c4);animation-name:c4}@keyframes
        c5{62.95%{fill:var(--c2)}62.97%,100%{fill:var(--ce)}}.c.c5{fill:var(--c2);animation-name:c5}@keyframes
        c6{98%{fill:var(--c4)}98.02%,100%{fill:var(--ce)}}.c.c6{fill:var(--c4);animation-name:c6}@keyframes
        c7{64.66%{fill:var(--c2)}64.68%,100%{fill:var(--ce)}}.c.c7{fill:var(--c2);animation-name:c7}@keyframes
        c8{2.27%{fill:var(--c1)}2.29%,100%{fill:var(--ce)}}.c.c8{fill:var(--c1);animation-name:c8}@keyframes
        c9{65.23%{fill:var(--c2)}65.25%,100%{fill:var(--ce)}}.c.c9{fill:var(--c2);animation-name:c9}@keyframes
        ca{23.92%{fill:var(--c1)}23.94%,100%{fill:var(--ce)}}.c.ca{fill:var(--c1);animation-name:ca}@keyframes
        cb{3.12%{fill:var(--c1)}3.14%,100%{fill:var(--ce)}}.c.cb{fill:var(--c1);animation-name:cb}@keyframes
        cc{2.84%{fill:var(--c1)}2.86%,100%{fill:var(--ce)}}.c.cc{fill:var(--c1);animation-name:cc}@keyframes
        cd{23.35%{fill:var(--c1)}23.37%,100%{fill:var(--ce)}}.c.cd{fill:var(--c1);animation-name:cd}@keyframes
        ce{62.38%{fill:var(--c2)}62.4%,100%{fill:var(--ce)}}.c.ce{fill:var(--c2);animation-name:ce}@keyframes
        cf{3.41%{fill:var(--c1)}3.43%,100%{fill:var(--ce)}}.c.cf{fill:var(--c1);animation-name:cf}@keyframes
        cg{67.51%{fill:var(--c3)}67.53%,100%{fill:var(--ce)}}.c.cg{fill:var(--c3);animation-name:cg}@keyframes
        ch{68.65%{fill:var(--c3)}68.67%,100%{fill:var(--ce)}}.c.ch{fill:var(--c3);animation-name:ch}@keyframes
        ci{3.98%{fill:var(--c1)}4%,100%{fill:var(--ce)}}.c.ci{fill:var(--c1);animation-name:ci}@keyframes
        cj{61.53%{fill:var(--c2)}61.55%,100%{fill:var(--ce)}}.c.cj{fill:var(--c2);animation-name:cj}@keyframes
        ck{4.83%{fill:var(--c1)}4.85%,100%{fill:var(--ce)}}.c.ck{fill:var(--c1);animation-name:ck}@keyframes
        cl{6.83%{fill:var(--c1)}6.85%,100%{fill:var(--ce)}}.c.cl{fill:var(--c1);animation-name:cl}@keyframes
        cm{5.4%{fill:var(--c1)}5.42%,100%{fill:var(--ce)}}.c.cm{fill:var(--c1);animation-name:cm}@keyframes
        cn{8.82%{fill:var(--c1)}8.84%,100%{fill:var(--ce)}}.c.cn{fill:var(--c1);animation-name:cn}@keyframes
        co{60.67%{fill:var(--c2)}60.69%,100%{fill:var(--ce)}}.c.co{fill:var(--c2);animation-name:co}@keyframes
        cp{5.69%{fill:var(--c1)}5.71%,100%{fill:var(--ce)}}.c.cp{fill:var(--c1);animation-name:cp}@keyframes
        cq{5.97%{fill:var(--c1)}5.99%,100%{fill:var(--ce)}}.c.cq{fill:var(--c1);animation-name:cq}@keyframes
        cr{59.82%{fill:var(--c2)}59.84%,100%{fill:var(--ce)}}.c.cr{fill:var(--c2);animation-name:cr}@keyframes
        cs{57.54%{fill:var(--c2)}57.56%,100%{fill:var(--ce)}}.c.cs{fill:var(--c2);animation-name:cs}@keyframes
        ct{57.82%{fill:var(--c2)}57.84%,100%{fill:var(--ce)}}.c.ct{fill:var(--c2);animation-name:ct}@keyframes
        cu{70.65%{fill:var(--c3)}70.67%,100%{fill:var(--ce)}}.c.cu{fill:var(--c3);animation-name:cu}@keyframes
        cv{18.79%{fill:var(--c1)}18.81%,100%{fill:var(--ce)}}.c.cv{fill:var(--c1);animation-name:cv}@keyframes
        cw{58.39%{fill:var(--c2)}58.41%,100%{fill:var(--ce)}}.c.cw{fill:var(--c2);animation-name:cw}@keyframes
        cx{58.68%{fill:var(--c2)}58.7%,100%{fill:var(--ce)}}.c.cx{fill:var(--c2);animation-name:cx}@keyframes
        cy{9.96%{fill:var(--c1)}9.98%,100%{fill:var(--ce)}}.c.cy{fill:var(--c1);animation-name:cy}@keyframes
        cz{10.25%{fill:var(--c1)}10.27%,100%{fill:var(--ce)}}.c.cz{fill:var(--c1);animation-name:cz}@keyframes
        c10{70.93%{fill:var(--c3)}70.95%,100%{fill:var(--ce)}}.c.c10{fill:var(--c3);animation-name:c10}@keyframes
        c11{11.96%{fill:var(--c1)}11.98%,100%{fill:var(--ce)}}.c.c11{fill:var(--c1);animation-name:c11}@keyframes
        c12{11.39%{fill:var(--c1)}11.41%,100%{fill:var(--ce)}}.c.c12{fill:var(--c1);animation-name:c12}@keyframes
        c13{12.24%{fill:var(--c1)}12.26%,100%{fill:var(--ce)}}.c.c13{fill:var(--c1);animation-name:c13}@keyframes
        c14{71.78%{fill:var(--c3)}71.8%,100%{fill:var(--ce)}}.c.c14{fill:var(--c3);animation-name:c14}@keyframes
        c15{56.12%{fill:var(--c2)}56.14%,100%{fill:var(--ce)}}.c.c15{fill:var(--c2);animation-name:c15}@keyframes
        c16{54.41%{fill:var(--c2)}54.43%,100%{fill:var(--ce)}}.c.c16{fill:var(--c2);animation-name:c16}@keyframes
        c17{15.66%{fill:var(--c1)}15.68%,100%{fill:var(--ce)}}.c.c17{fill:var(--c1);animation-name:c17}@keyframes
        c18{14.24%{fill:var(--c1)}14.26%,100%{fill:var(--ce)}}.c.c18{fill:var(--c1);animation-name:c18}@keyframes
        c19{34.46%{fill:var(--c1)}34.48%,100%{fill:var(--ce)}}.c.c19{fill:var(--c1);animation-name:c19}@keyframes
        c1a{50.99%{fill:var(--c2)}51.01%,100%{fill:var(--ce)}}.c.c1a{fill:var(--c2);animation-name:c1a}@keyframes
        c1b{34.75%{fill:var(--c1)}34.77%,100%{fill:var(--ce)}}.c.c1b{fill:var(--c1);animation-name:c1b}@keyframes
        c1c{50.7%{fill:var(--c2)}50.72%,100%{fill:var(--ce)}}.c.c1c{fill:var(--c2);animation-name:c1c}@keyframes
        c1d{35.32%{fill:var(--c1)}35.34%,100%{fill:var(--ce)}}.c.c1d{fill:var(--c1);animation-name:c1d}@keyframes
        c1e{36.17%{fill:var(--c1)}36.19%,100%{fill:var(--ce)}}.c.c1e{fill:var(--c1);animation-name:c1e}@keyframes
        c1f{36.74%{fill:var(--c1)}36.76%,100%{fill:var(--ce)}}.c.c1f{fill:var(--c1);animation-name:c1f}@keyframes
        c1g{36.46%{fill:var(--c1)}36.48%,100%{fill:var(--ce)}}.c.c1g{fill:var(--c1);animation-name:c1g}@keyframes
        c1h{41.02%{fill:var(--c1)}41.04%,100%{fill:var(--ce)}}.c.c1h{fill:var(--c1);animation-name:c1h}@keyframes
        c1i{45.29%{fill:var(--c2)}45.31%,100%{fill:var(--ce)}}.c.c1i{fill:var(--c2);animation-name:c1i}@keyframes
        c1j{45%{fill:var(--c2)}45.02%,100%{fill:var(--ce)}}.c.c1j{fill:var(--c2);animation-name:c1j}@keyframes
        c1k{83.18%{fill:var(--c3)}83.2%,100%{fill:var(--ce)}}.c.c1k{fill:var(--c3);animation-name:c1k}@keyframes
        c1l{43.29%{fill:var(--c1)}43.31%,100%{fill:var(--ce)}}.c.c1l{fill:var(--c1);animation-name:c1l}.u{transform-origin:0
        0;transform:scale(0,1);animation:none linear 35100ms infinite}@keyframes
        u0{2.27%{transform:scale(0.000,1)}2.29%,2.84%{transform:scale(0.033,1)}2.86%,3.12%{transform:scale(0.067,1)}3.14%,3.41%{transform:scale(0.100,1)}3.43%,3.98%{transform:scale(0.133,1)}4%,4.83%{transform:scale(0.167,1)}4.85%,5.4%{transform:scale(0.200,1)}5.42%,5.69%{transform:scale(0.233,1)}5.71%,5.97%{transform:scale(0.267,1)}5.99%,6.83%{transform:scale(0.300,1)}6.85%,8.82%{transform:scale(0.333,1)}8.84%,9.96%{transform:scale(0.367,1)}9.98%,10.25%{transform:scale(0.400,1)}10.27%,11.39%{transform:scale(0.433,1)}11.41%,11.96%{transform:scale(0.467,1)}11.98%,12.24%{transform:scale(0.500,1)}12.26%,14.24%{transform:scale(0.533,1)}14.26%,15.66%{transform:scale(0.567,1)}15.68%,18.79%{transform:scale(0.600,1)}18.81%,23.35%{transform:scale(0.633,1)}23.37%,23.92%{transform:scale(0.667,1)}23.94%,25.63%{transform:scale(0.700,1)}25.65%,34.46%{transform:scale(0.733,1)}34.48%,34.75%{transform:scale(0.767,1)}34.77%,35.32%{transform:scale(0.800,1)}35.34%,36.17%{transform:scale(0.833,1)}36.19%,36.46%{transform:scale(0.867,1)}36.48%,36.74%{transform:scale(0.900,1)}36.76%,41.02%{transform:scale(0.933,1)}41.04%,43.29%{transform:scale(0.967,1)}43.31%,100%{transform:scale(1.000,1)}}.u.u0{fill:var(--c1);animation-name:u0;transform-origin:0.0px
        0}@keyframes
        u1{45%{transform:scale(0.000,1)}45.02%,45.29%{transform:scale(0.053,1)}45.31%,50.7%{transform:scale(0.105,1)}50.72%,50.99%{transform:scale(0.158,1)}51.01%,54.41%{transform:scale(0.211,1)}54.43%,56.12%{transform:scale(0.263,1)}56.14%,57.54%{transform:scale(0.316,1)}57.56%,57.82%{transform:scale(0.368,1)}57.84%,58.39%{transform:scale(0.421,1)}58.41%,58.68%{transform:scale(0.474,1)}58.7%,59.82%{transform:scale(0.526,1)}59.84%,60.67%{transform:scale(0.579,1)}60.69%,61.53%{transform:scale(0.632,1)}61.55%,62.38%{transform:scale(0.684,1)}62.4%,62.95%{transform:scale(0.737,1)}62.97%,63.24%{transform:scale(0.789,1)}63.26%,63.81%{transform:scale(0.842,1)}63.83%,64.66%{transform:scale(0.895,1)}64.68%,65.23%{transform:scale(0.947,1)}65.25%,100%{transform:scale(1.000,1)}}.u.u1{fill:var(--c2);animation-name:u1;transform-origin:438.6px
        0}@keyframes
        u2{65.8%{transform:scale(0.000,1)}65.82%,67.51%{transform:scale(0.143,1)}67.53%,68.65%{transform:scale(0.286,1)}68.67%,70.65%{transform:scale(0.429,1)}70.67%,70.93%{transform:scale(0.571,1)}70.95%,71.78%{transform:scale(0.714,1)}71.8%,83.18%{transform:scale(0.857,1)}83.2%,100%{transform:scale(1.000,1)}}.u.u2{fill:var(--c3);animation-name:u2;transform-origin:716.4px
        0}@keyframes
        u3{98%{transform:scale(0.000,1)}98.02%,98.57%{transform:scale(0.500,1)}98.59%,100%{transform:scale(1.000,1)}}.u.u3{fill:var(--c4);animation-name:u3;transform-origin:818.8px
        0}.s{shape-rendering:geometricPrecision;fill:var(--cs);animation:none linear 35100ms
        infinite}@keyframes
        s0{0%,99.72%{transform:translate(0px,-16px)}1.14%{transform:translate(0px,48px)}1.71%,64.39%{transform:translate(32px,48px)}1.99%,25.93%{transform:translate(32px,64px)}2.56%{transform:translate(64px,64px)}3.13%{transform:translate(64px,32px)}3.7%{transform:translate(96px,32px)}3.99%,67.81%{transform:translate(96px,48px)}4.27%{transform:translate(112px,48px)}4.84%,61.82%{transform:translate(112px,16px)}5.7%{transform:translate(160px,16px)}5.98%{transform:translate(160px,32px)}6.27%{transform:translate(144px,32px)}6.84%{transform:translate(144px,0px)}7.12%{transform:translate(128px,0px)}7.41%{transform:translate(128px,16px)}7.69%{transform:translate(144px,16px)}8.83%{transform:translate(144px,80px)}9.97%{transform:translate(208px,80px)}10.26%{transform:translate(208px,96px)}10.54%{transform:translate(224px,96px)}11.97%,19.37%{transform:translate(224px,16px)}13.96%{transform:translate(336px,16px)}14.53%{transform:translate(336px,48px)}14.81%{transform:translate(320px,48px)}15.67%{transform:translate(320px,96px)}15.95%{transform:translate(304px,96px)}16.81%{transform:translate(304px,48px)}18.23%{transform:translate(224px,48px)}18.52%{transform:translate(224px,32px)}18.8%,58.12%{transform:translate(208px,32px)}19.09%{transform:translate(208px,16px)}20.51%{transform:translate(224px,80px)}23.36%{transform:translate(64px,80px)}23.65%{transform:translate(64px,96px)}23.93%{transform:translate(48px,96px)}24.22%{transform:translate(48px,112px)}24.79%{transform:translate(16px,112px)}25.36%{transform:translate(16px,80px)}25.64%,65.53%{transform:translate(32px,80px)}28.77%,58.97%{transform:translate(192px,64px)}29.06%{transform:translate(192px,80px)}33.9%{transform:translate(464px,80px)}34.47%{transform:translate(464px,48px)}35.61%{transform:translate(528px,48px)}36.18%{transform:translate(528px,16px)}36.47%{transform:translate(544px,16px)}36.75%{transform:translate(544px,0px)}41.88%{transform:translate(832px,0px)}43.3%{transform:translate(832px,80px)}43.59%{transform:translate(816px,80px)}44.44%,82.05%{transform:translate(816px,32px)}45.01%{transform:translate(784px,32px)}45.58%{transform:translate(784px,0px)}53.85%{transform:translate(320px,0px)}54.42%{transform:translate(320px,32px)}54.7%{transform:translate(304px,32px)}55.27%{transform:translate(304px,0px)}56.41%,71.23%{transform:translate(240px,0px)}56.7%{transform:translate(240px,16px)}57.55%{transform:translate(192px,16px)}57.83%{transform:translate(192px,32px)}58.69%{transform:translate(208px,64px)}59.26%{transform:translate(192px,48px)}59.83%{transform:translate(160px,48px)}60.68%{transform:translate(160px,0px)}61.54%{transform:translate(112px,0px)}63.53%{transform:translate(16px,16px)}63.82%{transform:translate(16px,32px)}64.1%{transform:translate(32px,32px)}64.67%{transform:translate(48px,48px)}65.24%{transform:translate(48px,80px)}65.81%{transform:translate(32px,96px)}66.67%{transform:translate(80px,96px)}67.52%{transform:translate(80px,48px)}68.66%{transform:translate(96px,0px)}71.79%{transform:translate(240px,32px)}83.19%{transform:translate(816px,96px)}83.48%{transform:translate(800px,96px)}84.62%{transform:translate(800px,32px)}98.01%{transform:translate(48px,32px)}98.86%{transform:translate(48px,-16px)}}.s.s0{transform:translate(0px,-16px);animation-name:s0}@keyframes
        s1{0%,99.72%{transform:translate(16px,-16px)}0.28%{transform:translate(0px,-16px)}1.42%{transform:translate(0px,48px)}1.99%,64.67%{transform:translate(32px,48px)}2.28%,26.21%{transform:translate(32px,64px)}2.85%{transform:translate(64px,64px)}3.42%{transform:translate(64px,32px)}3.99%{transform:translate(96px,32px)}4.27%,68.09%{transform:translate(96px,48px)}4.56%{transform:translate(112px,48px)}5.13%,62.11%{transform:translate(112px,16px)}5.98%{transform:translate(160px,16px)}6.27%{transform:translate(160px,32px)}6.55%{transform:translate(144px,32px)}7.12%{transform:translate(144px,0px)}7.41%{transform:translate(128px,0px)}7.69%{transform:translate(128px,16px)}7.98%{transform:translate(144px,16px)}9.12%{transform:translate(144px,80px)}10.26%{transform:translate(208px,80px)}10.54%{transform:translate(208px,96px)}10.83%{transform:translate(224px,96px)}12.25%,19.66%{transform:translate(224px,16px)}14.25%{transform:translate(336px,16px)}14.81%{transform:translate(336px,48px)}15.1%{transform:translate(320px,48px)}15.95%{transform:translate(320px,96px)}16.24%{transform:translate(304px,96px)}17.09%{transform:translate(304px,48px)}18.52%{transform:translate(224px,48px)}18.8%{transform:translate(224px,32px)}19.09%,58.4%{transform:translate(208px,32px)}19.37%{transform:translate(208px,16px)}20.8%{transform:translate(224px,80px)}23.65%{transform:translate(64px,80px)}23.93%{transform:translate(64px,96px)}24.22%{transform:translate(48px,96px)}24.5%{transform:translate(48px,112px)}25.07%{transform:translate(16px,112px)}25.64%{transform:translate(16px,80px)}25.93%,65.81%{transform:translate(32px,80px)}29.06%,59.26%{transform:translate(192px,64px)}29.34%{transform:translate(192px,80px)}34.19%{transform:translate(464px,80px)}34.76%{transform:translate(464px,48px)}35.9%{transform:translate(528px,48px)}36.47%{transform:translate(528px,16px)}36.75%{transform:translate(544px,16px)}37.04%{transform:translate(544px,0px)}42.17%{transform:translate(832px,0px)}43.59%{transform:translate(832px,80px)}43.87%{transform:translate(816px,80px)}44.73%,82.34%{transform:translate(816px,32px)}45.3%{transform:translate(784px,32px)}45.87%{transform:translate(784px,0px)}54.13%{transform:translate(320px,0px)}54.7%{transform:translate(320px,32px)}54.99%{transform:translate(304px,32px)}55.56%{transform:translate(304px,0px)}56.7%,71.51%{transform:translate(240px,0px)}56.98%{transform:translate(240px,16px)}57.83%{transform:translate(192px,16px)}58.12%{transform:translate(192px,32px)}58.97%{transform:translate(208px,64px)}59.54%{transform:translate(192px,48px)}60.11%{transform:translate(160px,48px)}60.97%{transform:translate(160px,0px)}61.82%{transform:translate(112px,0px)}63.82%{transform:translate(16px,16px)}64.1%{transform:translate(16px,32px)}64.39%{transform:translate(32px,32px)}64.96%{transform:translate(48px,48px)}65.53%{transform:translate(48px,80px)}66.1%{transform:translate(32px,96px)}66.95%{transform:translate(80px,96px)}67.81%{transform:translate(80px,48px)}68.95%{transform:translate(96px,0px)}72.08%{transform:translate(240px,32px)}83.48%{transform:translate(816px,96px)}83.76%{transform:translate(800px,96px)}84.9%{transform:translate(800px,32px)}98.29%{transform:translate(48px,32px)}99.15%{transform:translate(48px,-16px)}}.s.s1{transform:translate(16px,-16px);animation-name:s1}@keyframes
        s2{0%,99.72%{transform:translate(32px,-16px)}0.57%{transform:translate(0px,-16px)}1.71%{transform:translate(0px,48px)}2.28%,64.96%{transform:translate(32px,48px)}2.56%,26.5%{transform:translate(32px,64px)}3.13%{transform:translate(64px,64px)}3.7%{transform:translate(64px,32px)}4.27%{transform:translate(96px,32px)}4.56%,68.38%{transform:translate(96px,48px)}4.84%{transform:translate(112px,48px)}5.41%,62.39%{transform:translate(112px,16px)}6.27%{transform:translate(160px,16px)}6.55%{transform:translate(160px,32px)}6.84%{transform:translate(144px,32px)}7.41%{transform:translate(144px,0px)}7.69%{transform:translate(128px,0px)}7.98%{transform:translate(128px,16px)}8.26%{transform:translate(144px,16px)}9.4%{transform:translate(144px,80px)}10.54%{transform:translate(208px,80px)}10.83%{transform:translate(208px,96px)}11.11%{transform:translate(224px,96px)}12.54%,19.94%{transform:translate(224px,16px)}14.53%{transform:translate(336px,16px)}15.1%{transform:translate(336px,48px)}15.38%{transform:translate(320px,48px)}16.24%{transform:translate(320px,96px)}16.52%{transform:translate(304px,96px)}17.38%{transform:translate(304px,48px)}18.8%{transform:translate(224px,48px)}19.09%{transform:translate(224px,32px)}19.37%,58.69%{transform:translate(208px,32px)}19.66%{transform:translate(208px,16px)}21.08%{transform:translate(224px,80px)}23.93%{transform:translate(64px,80px)}24.22%{transform:translate(64px,96px)}24.5%{transform:translate(48px,96px)}24.79%{transform:translate(48px,112px)}25.36%{transform:translate(16px,112px)}25.93%{transform:translate(16px,80px)}26.21%,66.1%{transform:translate(32px,80px)}29.34%,59.54%{transform:translate(192px,64px)}29.63%{transform:translate(192px,80px)}34.47%{transform:translate(464px,80px)}35.04%{transform:translate(464px,48px)}36.18%{transform:translate(528px,48px)}36.75%{transform:translate(528px,16px)}37.04%{transform:translate(544px,16px)}37.32%{transform:translate(544px,0px)}42.45%{transform:translate(832px,0px)}43.87%{transform:translate(832px,80px)}44.16%{transform:translate(816px,80px)}45.01%,82.62%{transform:translate(816px,32px)}45.58%{transform:translate(784px,32px)}46.15%{transform:translate(784px,0px)}54.42%{transform:translate(320px,0px)}54.99%{transform:translate(320px,32px)}55.27%{transform:translate(304px,32px)}55.84%{transform:translate(304px,0px)}56.98%,71.79%{transform:translate(240px,0px)}57.26%{transform:translate(240px,16px)}58.12%{transform:translate(192px,16px)}58.4%{transform:translate(192px,32px)}59.26%{transform:translate(208px,64px)}59.83%{transform:translate(192px,48px)}60.4%{transform:translate(160px,48px)}61.25%{transform:translate(160px,0px)}62.11%{transform:translate(112px,0px)}64.1%{transform:translate(16px,16px)}64.39%{transform:translate(16px,32px)}64.67%{transform:translate(32px,32px)}65.24%{transform:translate(48px,48px)}65.81%{transform:translate(48px,80px)}66.38%{transform:translate(32px,96px)}67.24%{transform:translate(80px,96px)}68.09%{transform:translate(80px,48px)}69.23%{transform:translate(96px,0px)}72.36%{transform:translate(240px,32px)}83.76%{transform:translate(816px,96px)}84.05%{transform:translate(800px,96px)}85.19%{transform:translate(800px,32px)}98.58%{transform:translate(48px,32px)}99.43%{transform:translate(48px,-16px)}}.s.s2{transform:translate(32px,-16px);animation-name:s2}@keyframes
        s3{0%,99.72%{transform:translate(48px,-16px)}0.85%{transform:translate(0px,-16px)}1.99%{transform:translate(0px,48px)}2.56%,65.24%{transform:translate(32px,48px)}2.85%,26.78%{transform:translate(32px,64px)}3.42%{transform:translate(64px,64px)}3.99%{transform:translate(64px,32px)}4.56%{transform:translate(96px,32px)}4.84%,68.66%{transform:translate(96px,48px)}5.13%{transform:translate(112px,48px)}5.7%,62.68%{transform:translate(112px,16px)}6.55%{transform:translate(160px,16px)}6.84%{transform:translate(160px,32px)}7.12%{transform:translate(144px,32px)}7.69%{transform:translate(144px,0px)}7.98%{transform:translate(128px,0px)}8.26%{transform:translate(128px,16px)}8.55%{transform:translate(144px,16px)}9.69%{transform:translate(144px,80px)}10.83%{transform:translate(208px,80px)}11.11%{transform:translate(208px,96px)}11.4%{transform:translate(224px,96px)}12.82%,20.23%{transform:translate(224px,16px)}14.81%{transform:translate(336px,16px)}15.38%{transform:translate(336px,48px)}15.67%{transform:translate(320px,48px)}16.52%{transform:translate(320px,96px)}16.81%{transform:translate(304px,96px)}17.66%{transform:translate(304px,48px)}19.09%{transform:translate(224px,48px)}19.37%{transform:translate(224px,32px)}19.66%,58.97%{transform:translate(208px,32px)}19.94%{transform:translate(208px,16px)}21.37%{transform:translate(224px,80px)}24.22%{transform:translate(64px,80px)}24.5%{transform:translate(64px,96px)}24.79%{transform:translate(48px,96px)}25.07%{transform:translate(48px,112px)}25.64%{transform:translate(16px,112px)}26.21%{transform:translate(16px,80px)}26.5%,66.38%{transform:translate(32px,80px)}29.63%,59.83%{transform:translate(192px,64px)}29.91%{transform:translate(192px,80px)}34.76%{transform:translate(464px,80px)}35.33%{transform:translate(464px,48px)}36.47%{transform:translate(528px,48px)}37.04%{transform:translate(528px,16px)}37.32%{transform:translate(544px,16px)}37.61%{transform:translate(544px,0px)}42.74%{transform:translate(832px,0px)}44.16%{transform:translate(832px,80px)}44.44%{transform:translate(816px,80px)}45.3%,82.91%{transform:translate(816px,32px)}45.87%{transform:translate(784px,32px)}46.44%{transform:translate(784px,0px)}54.7%{transform:translate(320px,0px)}55.27%{transform:translate(320px,32px)}55.56%{transform:translate(304px,32px)}56.13%{transform:translate(304px,0px)}57.26%,72.08%{transform:translate(240px,0px)}57.55%{transform:translate(240px,16px)}58.4%{transform:translate(192px,16px)}58.69%{transform:translate(192px,32px)}59.54%{transform:translate(208px,64px)}60.11%{transform:translate(192px,48px)}60.68%{transform:translate(160px,48px)}61.54%{transform:translate(160px,0px)}62.39%{transform:translate(112px,0px)}64.39%{transform:translate(16px,16px)}64.67%{transform:translate(16px,32px)}64.96%{transform:translate(32px,32px)}65.53%{transform:translate(48px,48px)}66.1%{transform:translate(48px,80px)}66.67%{transform:translate(32px,96px)}67.52%{transform:translate(80px,96px)}68.38%{transform:translate(80px,48px)}69.52%{transform:translate(96px,0px)}72.65%{transform:translate(240px,32px)}84.05%{transform:translate(816px,96px)}84.33%{transform:translate(800px,96px)}85.47%{transform:translate(800px,32px)}98.86%{transform:translate(48px,32px)}}.s.s3{transform:translate(48px,-16px);animation-name:s3}</style>
    <rect class="c" x="2" y="2" rx="2" ry="2"></rect>
    <rect class="c" x="2" y="18" rx="2" ry="2"></rect>
    <rect class="c" x="2" y="34" rx="2" ry="2"></rect>
    <rect class="c" x="2" y="50" rx="2" ry="2"></rect>
    <rect class="c" x="2" y="66" rx="2" ry="2"></rect>
    <rect class="c" x="2" y="82" rx="2" ry="2"></rect>
    <rect class="c" x="2" y="98" rx="2" ry="2"></rect>
    <rect class="c" x="18" y="2" rx="2" ry="2"></rect>
    <rect class="c" x="18" y="18" rx="2" ry="2"></rect>
    <rect class="c c0" x="18" y="34" rx="2" ry="2"></rect>
    <rect class="c" x="18" y="50" rx="2" ry="2"></rect>
    <rect class="c" x="18" y="66" rx="2" ry="2"></rect>
    <rect class="c" x="18" y="82" rx="2" ry="2"></rect>
    <rect class="c" x="18" y="98" rx="2" ry="2"></rect>
    <rect class="c" x="34" y="2" rx="2" ry="2"></rect>
    <rect class="c c1" x="34" y="18" rx="2" ry="2"></rect>
    <rect class="c" x="34" y="34" rx="2" ry="2"></rect>
    <rect class="c" x="34" y="50" rx="2" ry="2"></rect>
    <rect class="c" x="34" y="66" rx="2" ry="2"></rect>
    <rect class="c c2" x="34" y="82" rx="2" ry="2"></rect>
    <rect class="c c3" x="34" y="98" rx="2" ry="2"></rect>
    <rect class="c c4" x="50" y="2" rx="2" ry="2"></rect>
    <rect class="c c5" x="50" y="18" rx="2" ry="2"></rect>
    <rect class="c c6" x="50" y="34" rx="2" ry="2"></rect>
    <rect class="c c7" x="50" y="50" rx="2" ry="2"></rect>
    <rect class="c c8" x="50" y="66" rx="2" ry="2"></rect>
    <rect class="c c9" x="50" y="82" rx="2" ry="2"></rect>
    <rect class="c ca" x="50" y="98" rx="2" ry="2"></rect>
    <rect class="c" x="66" y="2" rx="2" ry="2"></rect>
    <rect class="c" x="66" y="18" rx="2" ry="2"></rect>
    <rect class="c cb" x="66" y="34" rx="2" ry="2"></rect>
    <rect class="c cc" x="66" y="50" rx="2" ry="2"></rect>
    <rect class="c" x="66" y="66" rx="2" ry="2"></rect>
    <rect class="c cd" x="66" y="82" rx="2" ry="2"></rect>
    <rect class="c" x="66" y="98" rx="2" ry="2"></rect>
    <rect class="c" x="82" y="2" rx="2" ry="2"></rect>
    <rect class="c ce" x="82" y="18" rx="2" ry="2"></rect>
    <rect class="c cf" x="82" y="34" rx="2" ry="2"></rect>
    <rect class="c cg" x="82" y="50" rx="2" ry="2"></rect>
    <rect class="c" x="82" y="66" rx="2" ry="2"></rect>
    <rect class="c" x="82" y="82" rx="2" ry="2"></rect>
    <rect class="c" x="82" y="98" rx="2" ry="2"></rect>
    <rect class="c ch" x="98" y="2" rx="2" ry="2"></rect>
    <rect class="c" x="98" y="18" rx="2" ry="2"></rect>
    <rect class="c" x="98" y="34" rx="2" ry="2"></rect>
    <rect class="c ci" x="98" y="50" rx="2" ry="2"></rect>
    <rect class="c" x="98" y="66" rx="2" ry="2"></rect>
    <rect class="c" x="98" y="82" rx="2" ry="2"></rect>
    <rect class="c" x="98" y="98" rx="2" ry="2"></rect>
    <rect class="c cj" x="114" y="2" rx="2" ry="2"></rect>
    <rect class="c ck" x="114" y="18" rx="2" ry="2"></rect>
    <rect class="c" x="114" y="34" rx="2" ry="2"></rect>
    <rect class="c" x="114" y="50" rx="2" ry="2"></rect>
    <rect class="c" x="114" y="66" rx="2" ry="2"></rect>
    <rect class="c" x="114" y="82" rx="2" ry="2"></rect>
    <rect class="c" x="114" y="98" rx="2" ry="2"></rect>
    <rect class="c" x="130" y="2" rx="2" ry="2"></rect>
    <rect class="c" x="130" y="18" rx="2" ry="2"></rect>
    <rect class="c" x="130" y="34" rx="2" ry="2"></rect>
    <rect class="c" x="130" y="50" rx="2" ry="2"></rect>
    <rect class="c" x="130" y="66" rx="2" ry="2"></rect>
    <rect class="c" x="130" y="82" rx="2" ry="2"></rect>
    <rect class="c" x="130" y="98" rx="2" ry="2"></rect>
    <rect class="c cl" x="146" y="2" rx="2" ry="2"></rect>
    <rect class="c cm" x="146" y="18" rx="2" ry="2"></rect>
    <rect class="c" x="146" y="34" rx="2" ry="2"></rect>
    <rect class="c" x="146" y="50" rx="2" ry="2"></rect>
    <rect class="c" x="146" y="66" rx="2" ry="2"></rect>
    <rect class="c cn" x="146" y="82" rx="2" ry="2"></rect>
    <rect class="c" x="146" y="98" rx="2" ry="2"></rect>
    <rect class="c co" x="162" y="2" rx="2" ry="2"></rect>
    <rect class="c cp" x="162" y="18" rx="2" ry="2"></rect>
    <rect class="c cq" x="162" y="34" rx="2" ry="2"></rect>
    <rect class="c cr" x="162" y="50" rx="2" ry="2"></rect>
    <rect class="c" x="162" y="66" rx="2" ry="2"></rect>
    <rect class="c" x="162" y="82" rx="2" ry="2"></rect>
    <rect class="c" x="162" y="98" rx="2" ry="2"></rect>
    <rect class="c" x="178" y="2" rx="2" ry="2"></rect>
    <rect class="c" x="178" y="18" rx="2" ry="2"></rect>
    <rect class="c" x="178" y="34" rx="2" ry="2"></rect>
    <rect class="c" x="178" y="50" rx="2" ry="2"></rect>
    <rect class="c" x="178" y="66" rx="2" ry="2"></rect>
    <rect class="c" x="178" y="82" rx="2" ry="2"></rect>
    <rect class="c" x="178" y="98" rx="2" ry="2"></rect>
    <rect class="c" x="194" y="2" rx="2" ry="2"></rect>
    <rect class="c cs" x="194" y="18" rx="2" ry="2"></rect>
    <rect class="c ct" x="194" y="34" rx="2" ry="2"></rect>
    <rect class="c" x="194" y="50" rx="2" ry="2"></rect>
    <rect class="c" x="194" y="66" rx="2" ry="2"></rect>
    <rect class="c" x="194" y="82" rx="2" ry="2"></rect>
    <rect class="c" x="194" y="98" rx="2" ry="2"></rect>
    <rect class="c cu" x="210" y="2" rx="2" ry="2"></rect>
    <rect class="c" x="210" y="18" rx="2" ry="2"></rect>
    <rect class="c cv" x="210" y="34" rx="2" ry="2"></rect>
    <rect class="c cw" x="210" y="50" rx="2" ry="2"></rect>
    <rect class="c cx" x="210" y="66" rx="2" ry="2"></rect>
    <rect class="c cy" x="210" y="82" rx="2" ry="2"></rect>
    <rect class="c cz" x="210" y="98" rx="2" ry="2"></rect>
    <rect class="c c10" x="226" y="2" rx="2" ry="2"></rect>
    <rect class="c c11" x="226" y="18" rx="2" ry="2"></rect>
    <rect class="c" x="226" y="34" rx="2" ry="2"></rect>
    <rect class="c c12" x="226" y="50" rx="2" ry="2"></rect>
    <rect class="c" x="226" y="66" rx="2" ry="2"></rect>
    <rect class="c" x="226" y="82" rx="2" ry="2"></rect>
    <rect class="c" x="226" y="98" rx="2" ry="2"></rect>
    <rect class="c" x="242" y="2" rx="2" ry="2"></rect>
    <rect class="c c13" x="242" y="18" rx="2" ry="2"></rect>
    <rect class="c c14" x="242" y="34" rx="2" ry="2"></rect>
    <rect class="c" x="242" y="50" rx="2" ry="2"></rect>
    <rect class="c" x="242" y="66" rx="2" ry="2"></rect>
    <rect class="c" x="242" y="82" rx="2" ry="2"></rect>
    <rect class="c" x="242" y="98" rx="2" ry="2"></rect>
    <rect class="c c15" x="258" y="2" rx="2" ry="2"></rect>
    <rect class="c" x="258" y="18" rx="2" ry="2"></rect>
    <rect class="c" x="258" y="34" rx="2" ry="2"></rect>
    <rect class="c" x="258" y="50" rx="2" ry="2"></rect>
    <rect class="c" x="258" y="66" rx="2" ry="2"></rect>
    <rect class="c" x="258" y="82" rx="2" ry="2"></rect>
    <rect class="c" x="258" y="98" rx="2" ry="2"></rect>
    <rect class="c" x="274" y="2" rx="2" ry="2"></rect>
    <rect class="c" x="274" y="18" rx="2" ry="2"></rect>
    <rect class="c" x="274" y="34" rx="2" ry="2"></rect>
    <rect class="c" x="274" y="50" rx="2" ry="2"></rect>
    <rect class="c" x="274" y="66" rx="2" ry="2"></rect>
    <rect class="c" x="274" y="82" rx="2" ry="2"></rect>
    <rect class="c" x="274" y="98" rx="2" ry="2"></rect>
    <rect class="c" x="290" y="2" rx="2" ry="2"></rect>
    <rect class="c" x="290" y="18" rx="2" ry="2"></rect>
    <rect class="c" x="290" y="34" rx="2" ry="2"></rect>
    <rect class="c" x="290" y="50" rx="2" ry="2"></rect>
    <rect class="c" x="290" y="66" rx="2" ry="2"></rect>
    <rect class="c" x="290" y="82" rx="2" ry="2"></rect>
    <rect class="c" x="290" y="98" rx="2" ry="2"></rect>
    <rect class="c" x="306" y="2" rx="2" ry="2"></rect>
    <rect class="c" x="306" y="18" rx="2" ry="2"></rect>
    <rect class="c" x="306" y="34" rx="2" ry="2"></rect>
    <rect class="c" x="306" y="50" rx="2" ry="2"></rect>
    <rect class="c" x="306" y="66" rx="2" ry="2"></rect>
    <rect class="c" x="306" y="82" rx="2" ry="2"></rect>
    <rect class="c" x="306" y="98" rx="2" ry="2"></rect>
    <rect class="c" x="322" y="2" rx="2" ry="2"></rect>
    <rect class="c" x="322" y="18" rx="2" ry="2"></rect>
    <rect class="c c16" x="322" y="34" rx="2" ry="2"></rect>
    <rect class="c" x="322" y="50" rx="2" ry="2"></rect>
    <rect class="c" x="322" y="66" rx="2" ry="2"></rect>
    <rect class="c" x="322" y="82" rx="2" ry="2"></rect>
    <rect class="c c17" x="322" y="98" rx="2" ry="2"></rect>
    <rect class="c" x="338" y="2" rx="2" ry="2"></rect>
    <rect class="c" x="338" y="18" rx="2" ry="2"></rect>
    <rect class="c c18" x="338" y="34" rx="2" ry="2"></rect>
    <rect class="c" x="338" y="50" rx="2" ry="2"></rect>
    <rect class="c" x="338" y="66" rx="2" ry="2"></rect>
    <rect class="c" x="338" y="82" rx="2" ry="2"></rect>
    <rect class="c" x="338" y="98" rx="2" ry="2"></rect>
    <rect class="c" x="354" y="2" rx="2" ry="2"></rect>
    <rect class="c" x="354" y="18" rx="2" ry="2"></rect>
    <rect class="c" x="354" y="34" rx="2" ry="2"></rect>
    <rect class="c" x="354" y="50" rx="2" ry="2"></rect>
    <rect class="c" x="354" y="66" rx="2" ry="2"></rect>
    <rect class="c" x="354" y="82" rx="2" ry="2"></rect>
    <rect class="c" x="354" y="98" rx="2" ry="2"></rect>
    <rect class="c" x="370" y="2" rx="2" ry="2"></rect>
    <rect class="c" x="370" y="18" rx="2" ry="2"></rect>
    <rect class="c" x="370" y="34" rx="2" ry="2"></rect>
    <rect class="c" x="370" y="50" rx="2" ry="2"></rect>
    <rect class="c" x="370" y="66" rx="2" ry="2"></rect>
    <rect class="c" x="370" y="82" rx="2" ry="2"></rect>
    <rect class="c" x="370" y="98" rx="2" ry="2"></rect>
    <rect class="c" x="386" y="2" rx="2" ry="2"></rect>
    <rect class="c" x="386" y="18" rx="2" ry="2"></rect>
    <rect class="c" x="386" y="34" rx="2" ry="2"></rect>
    <rect class="c" x="386" y="50" rx="2" ry="2"></rect>
    <rect class="c" x="386" y="66" rx="2" ry="2"></rect>
    <rect class="c" x="386" y="82" rx="2" ry="2"></rect>
    <rect class="c" x="386" y="98" rx="2" ry="2"></rect>
    <rect class="c" x="402" y="2" rx="2" ry="2"></rect>
    <rect class="c" x="402" y="18" rx="2" ry="2"></rect>
    <rect class="c" x="402" y="34" rx="2" ry="2"></rect>
    <rect class="c" x="402" y="50" rx="2" ry="2"></rect>
    <rect class="c" x="402" y="66" rx="2" ry="2"></rect>
    <rect class="c" x="402" y="82" rx="2" ry="2"></rect>
    <rect class="c" x="402" y="98" rx="2" ry="2"></rect>
    <rect class="c" x="418" y="2" rx="2" ry="2"></rect>
    <rect class="c" x="418" y="18" rx="2" ry="2"></rect>
    <rect class="c" x="418" y="34" rx="2" ry="2"></rect>
    <rect class="c" x="418" y="50" rx="2" ry="2"></rect>
    <rect class="c" x="418" y="66" rx="2" ry="2"></rect>
    <rect class="c" x="418" y="82" rx="2" ry="2"></rect>
    <rect class="c" x="418" y="98" rx="2" ry="2"></rect>
    <rect class="c" x="434" y="2" rx="2" ry="2"></rect>
    <rect class="c" x="434" y="18" rx="2" ry="2"></rect>
    <rect class="c" x="434" y="34" rx="2" ry="2"></rect>
    <rect class="c" x="434" y="50" rx="2" ry="2"></rect>
    <rect class="c" x="434" y="66" rx="2" ry="2"></rect>
    <rect class="c" x="434" y="82" rx="2" ry="2"></rect>
    <rect class="c" x="434" y="98" rx="2" ry="2"></rect>
    <rect class="c" x="450" y="2" rx="2" ry="2"></rect>
    <rect class="c" x="450" y="18" rx="2" ry="2"></rect>
    <rect class="c" x="450" y="34" rx="2" ry="2"></rect>
    <rect class="c" x="450" y="50" rx="2" ry="2"></rect>
    <rect class="c" x="450" y="66" rx="2" ry="2"></rect>
    <rect class="c" x="450" y="82" rx="2" ry="2"></rect>
    <rect class="c" x="450" y="98" rx="2" ry="2"></rect>
    <rect class="c" x="466" y="2" rx="2" ry="2"></rect>
    <rect class="c" x="466" y="18" rx="2" ry="2"></rect>
    <rect class="c" x="466" y="34" rx="2" ry="2"></rect>
    <rect class="c c19" x="466" y="50" rx="2" ry="2"></rect>
    <rect class="c" x="466" y="66" rx="2" ry="2"></rect>
    <rect class="c" x="466" y="82" rx="2" ry="2"></rect>
    <rect class="c" x="466" y="98" rx="2" ry="2"></rect>
    <rect class="c c1a" x="482" y="2" rx="2" ry="2"></rect>
    <rect class="c" x="482" y="18" rx="2" ry="2"></rect>
    <rect class="c" x="482" y="34" rx="2" ry="2"></rect>
    <rect class="c c1b" x="482" y="50" rx="2" ry="2"></rect>
    <rect class="c" x="482" y="66" rx="2" ry="2"></rect>
    <rect class="c" x="482" y="82" rx="2" ry="2"></rect>
    <rect class="c" x="482" y="98" rx="2" ry="2"></rect>
    <rect class="c c1c" x="498" y="2" rx="2" ry="2"></rect>
    <rect class="c" x="498" y="18" rx="2" ry="2"></rect>
    <rect class="c" x="498" y="34" rx="2" ry="2"></rect>
    <rect class="c" x="498" y="50" rx="2" ry="2"></rect>
    <rect class="c" x="498" y="66" rx="2" ry="2"></rect>
    <rect class="c" x="498" y="82" rx="2" ry="2"></rect>
    <rect class="c" x="498" y="98" rx="2" ry="2"></rect>
    <rect class="c" x="514" y="2" rx="2" ry="2"></rect>
    <rect class="c" x="514" y="18" rx="2" ry="2"></rect>
    <rect class="c" x="514" y="34" rx="2" ry="2"></rect>
    <rect class="c c1d" x="514" y="50" rx="2" ry="2"></rect>
    <rect class="c" x="514" y="66" rx="2" ry="2"></rect>
    <rect class="c" x="514" y="82" rx="2" ry="2"></rect>
    <rect class="c" x="514" y="98" rx="2" ry="2"></rect>
    <rect class="c" x="530" y="2" rx="2" ry="2"></rect>
    <rect class="c c1e" x="530" y="18" rx="2" ry="2"></rect>
    <rect class="c" x="530" y="34" rx="2" ry="2"></rect>
    <rect class="c" x="530" y="50" rx="2" ry="2"></rect>
    <rect class="c" x="530" y="66" rx="2" ry="2"></rect>
    <rect class="c" x="530" y="82" rx="2" ry="2"></rect>
    <rect class="c" x="530" y="98" rx="2" ry="2"></rect>
    <rect class="c c1f" x="546" y="2" rx="2" ry="2"></rect>
    <rect class="c c1g" x="546" y="18" rx="2" ry="2"></rect>
    <rect class="c" x="546" y="34" rx="2" ry="2"></rect>
    <rect class="c" x="546" y="50" rx="2" ry="2"></rect>
    <rect class="c" x="546" y="66" rx="2" ry="2"></rect>
    <rect class="c" x="546" y="82" rx="2" ry="2"></rect>
    <rect class="c" x="546" y="98" rx="2" ry="2"></rect>
    <rect class="c" x="562" y="2" rx="2" ry="2"></rect>
    <rect class="c" x="562" y="18" rx="2" ry="2"></rect>
    <rect class="c" x="562" y="34" rx="2" ry="2"></rect>
    <rect class="c" x="562" y="50" rx="2" ry="2"></rect>
    <rect class="c" x="562" y="66" rx="2" ry="2"></rect>
    <rect class="c" x="562" y="82" rx="2" ry="2"></rect>
    <rect class="c" x="562" y="98" rx="2" ry="2"></rect>
    <rect class="c" x="578" y="2" rx="2" ry="2"></rect>
    <rect class="c" x="578" y="18" rx="2" ry="2"></rect>
    <rect class="c" x="578" y="34" rx="2" ry="2"></rect>
    <rect class="c" x="578" y="50" rx="2" ry="2"></rect>
    <rect class="c" x="578" y="66" rx="2" ry="2"></rect>
    <rect class="c" x="578" y="82" rx="2" ry="2"></rect>
    <rect class="c" x="578" y="98" rx="2" ry="2"></rect>
    <rect class="c" x="594" y="2" rx="2" ry="2"></rect>
    <rect class="c" x="594" y="18" rx="2" ry="2"></rect>
    <rect class="c" x="594" y="34" rx="2" ry="2"></rect>
    <rect class="c" x="594" y="50" rx="2" ry="2"></rect>
    <rect class="c" x="594" y="66" rx="2" ry="2"></rect>
    <rect class="c" x="594" y="82" rx="2" ry="2"></rect>
    <rect class="c" x="594" y="98" rx="2" ry="2"></rect>
    <rect class="c" x="610" y="2" rx="2" ry="2"></rect>
    <rect class="c" x="610" y="18" rx="2" ry="2"></rect>
    <rect class="c" x="610" y="34" rx="2" ry="2"></rect>
    <rect class="c" x="610" y="50" rx="2" ry="2"></rect>
    <rect class="c" x="610" y="66" rx="2" ry="2"></rect>
    <rect class="c" x="610" y="82" rx="2" ry="2"></rect>
    <rect class="c" x="610" y="98" rx="2" ry="2"></rect>
    <rect class="c" x="626" y="2" rx="2" ry="2"></rect>
    <rect class="c" x="626" y="18" rx="2" ry="2"></rect>
    <rect class="c" x="626" y="34" rx="2" ry="2"></rect>
    <rect class="c" x="626" y="50" rx="2" ry="2"></rect>
    <rect class="c" x="626" y="66" rx="2" ry="2"></rect>
    <rect class="c" x="626" y="82" rx="2" ry="2"></rect>
    <rect class="c" x="626" y="98" rx="2" ry="2"></rect>
    <rect class="c" x="642" y="2" rx="2" ry="2"></rect>
    <rect class="c" x="642" y="18" rx="2" ry="2"></rect>
    <rect class="c" x="642" y="34" rx="2" ry="2"></rect>
    <rect class="c" x="642" y="50" rx="2" ry="2"></rect>
    <rect class="c" x="642" y="66" rx="2" ry="2"></rect>
    <rect class="c" x="642" y="82" rx="2" ry="2"></rect>
    <rect class="c" x="642" y="98" rx="2" ry="2"></rect>
    <rect class="c" x="658" y="2" rx="2" ry="2"></rect>
    <rect class="c" x="658" y="18" rx="2" ry="2"></rect>
    <rect class="c" x="658" y="34" rx="2" ry="2"></rect>
    <rect class="c" x="658" y="50" rx="2" ry="2"></rect>
    <rect class="c" x="658" y="66" rx="2" ry="2"></rect>
    <rect class="c" x="658" y="82" rx="2" ry="2"></rect>
    <rect class="c" x="658" y="98" rx="2" ry="2"></rect>
    <rect class="c" x="674" y="2" rx="2" ry="2"></rect>
    <rect class="c" x="674" y="18" rx="2" ry="2"></rect>
    <rect class="c" x="674" y="34" rx="2" ry="2"></rect>
    <rect class="c" x="674" y="50" rx="2" ry="2"></rect>
    <rect class="c" x="674" y="66" rx="2" ry="2"></rect>
    <rect class="c" x="674" y="82" rx="2" ry="2"></rect>
    <rect class="c" x="674" y="98" rx="2" ry="2"></rect>
    <rect class="c" x="690" y="2" rx="2" ry="2"></rect>
    <rect class="c" x="690" y="18" rx="2" ry="2"></rect>
    <rect class="c" x="690" y="34" rx="2" ry="2"></rect>
    <rect class="c" x="690" y="50" rx="2" ry="2"></rect>
    <rect class="c" x="690" y="66" rx="2" ry="2"></rect>
    <rect class="c" x="690" y="82" rx="2" ry="2"></rect>
    <rect class="c" x="690" y="98" rx="2" ry="2"></rect>
    <rect class="c" x="706" y="2" rx="2" ry="2"></rect>
    <rect class="c" x="706" y="18" rx="2" ry="2"></rect>
    <rect class="c" x="706" y="34" rx="2" ry="2"></rect>
    <rect class="c" x="706" y="50" rx="2" ry="2"></rect>
    <rect class="c" x="706" y="66" rx="2" ry="2"></rect>
    <rect class="c" x="706" y="82" rx="2" ry="2"></rect>
    <rect class="c" x="706" y="98" rx="2" ry="2"></rect>
    <rect class="c" x="722" y="2" rx="2" ry="2"></rect>
    <rect class="c" x="722" y="18" rx="2" ry="2"></rect>
    <rect class="c" x="722" y="34" rx="2" ry="2"></rect>
    <rect class="c" x="722" y="50" rx="2" ry="2"></rect>
    <rect class="c" x="722" y="66" rx="2" ry="2"></rect>
    <rect class="c" x="722" y="82" rx="2" ry="2"></rect>
    <rect class="c" x="722" y="98" rx="2" ry="2"></rect>
    <rect class="c" x="738" y="2" rx="2" ry="2"></rect>
    <rect class="c" x="738" y="18" rx="2" ry="2"></rect>
    <rect class="c" x="738" y="34" rx="2" ry="2"></rect>
    <rect class="c" x="738" y="50" rx="2" ry="2"></rect>
    <rect class="c" x="738" y="66" rx="2" ry="2"></rect>
    <rect class="c" x="738" y="82" rx="2" ry="2"></rect>
    <rect class="c" x="738" y="98" rx="2" ry="2"></rect>
    <rect class="c" x="754" y="2" rx="2" ry="2"></rect>
    <rect class="c" x="754" y="18" rx="2" ry="2"></rect>
    <rect class="c" x="754" y="34" rx="2" ry="2"></rect>
    <rect class="c" x="754" y="50" rx="2" ry="2"></rect>
    <rect class="c" x="754" y="66" rx="2" ry="2"></rect>
    <rect class="c" x="754" y="82" rx="2" ry="2"></rect>
    <rect class="c" x="754" y="98" rx="2" ry="2"></rect>
    <rect class="c" x="770" y="2" rx="2" ry="2"></rect>
    <rect class="c" x="770" y="18" rx="2" ry="2"></rect>
    <rect class="c" x="770" y="34" rx="2" ry="2"></rect>
    <rect class="c" x="770" y="50" rx="2" ry="2"></rect>
    <rect class="c" x="770" y="66" rx="2" ry="2"></rect>
    <rect class="c" x="770" y="82" rx="2" ry="2"></rect>
    <rect class="c" x="770" y="98" rx="2" ry="2"></rect>
    <rect class="c c1h" x="786" y="2" rx="2" ry="2"></rect>
    <rect class="c c1i" x="786" y="18" rx="2" ry="2"></rect>
    <rect class="c c1j" x="786" y="34" rx="2" ry="2"></rect>
    <rect class="c" x="786" y="50" rx="2" ry="2"></rect>
    <rect class="c" x="786" y="66" rx="2" ry="2"></rect>
    <rect class="c" x="786" y="82" rx="2" ry="2"></rect>
    <rect class="c" x="786" y="98" rx="2" ry="2"></rect>
    <rect class="c" x="802" y="2" rx="2" ry="2"></rect>
    <rect class="c" x="802" y="18" rx="2" ry="2"></rect>
    <rect class="c" x="802" y="34" rx="2" ry="2"></rect>
    <rect class="c" x="802" y="50" rx="2" ry="2"></rect>
    <rect class="c" x="802" y="66" rx="2" ry="2"></rect>
    <rect class="c" x="802" y="82" rx="2" ry="2"></rect>
    <rect class="c" x="802" y="98" rx="2" ry="2"></rect>
    <rect class="c" x="818" y="2" rx="2" ry="2"></rect>
    <rect class="c" x="818" y="18" rx="2" ry="2"></rect>
    <rect class="c" x="818" y="34" rx="2" ry="2"></rect>
    <rect class="c" x="818" y="50" rx="2" ry="2"></rect>
    <rect class="c" x="818" y="66" rx="2" ry="2"></rect>
    <rect class="c" x="818" y="82" rx="2" ry="2"></rect>
    <rect class="c c1k" x="818" y="98" rx="2" ry="2"></rect>
    <rect class="c" x="834" y="2" rx="2" ry="2"></rect>
    <rect class="c" x="834" y="18" rx="2" ry="2"></rect>
    <rect class="c" x="834" y="34" rx="2" ry="2"></rect>
    <rect class="c" x="834" y="50" rx="2" ry="2"></rect>
    <rect class="c" x="834" y="66" rx="2" ry="2"></rect>
    <rect class="c c1l" x="834" y="82" rx="2" ry="2"></rect>
    <rect class="u u0" height="12" width="439.2" x="0.0" y="144"></rect>
    <rect class="u u1" height="12" width="278.4" x="438.6" y="144"></rect>
    <rect class="u u2" height="12" width="102.9" x="716.4" y="144"></rect>
    <rect class="u u3" height="12" width="29.8" x="818.8" y="144"></rect>
    <rect class="s s0" x="0.8" y="0.8" width="14.4" height="14.4" rx="4.5" ry="4.5"></rect>
    <rect class="s s1" x="1.8" y="1.8" width="12.3" height="12.3" rx="4.1" ry="4.1"></rect>
    <rect class="s s2" x="2.6" y="2.6" width="10.8" height="10.8" rx="3.6" ry="3.6"></rect>
    <rect class="s s3" x="3.0" y="3.0" width="9.9" height="9.9" rx="3.3" ry="3.3"></rect>
</svg>